<?xml version="1.0" standalone="no"?>
<!DOCTYPE svg PUBLIC "-//W3C//DTD SVG 20010904//EN"
 "http://www.w3.org/TR/2001/REC-SVG-20010904/DTD/svg10.dtd">
<svg version="1.0" xmlns="http://www.w3.org/2000/svg"
 width="700.000000pt" height="700.000000pt" viewBox="0 0 700.000000 700.000000"
 preserveAspectRatio="xMidYMid meet">
<metadata>
Created by potrace 1.11, written by Peter Selinger 2001-2013
</metadata>
<g transform="translate(0.000000,700.000000) scale(0.100000,-0.100000)"
fill="#000000" stroke="none">
<path d="M3215 6989 c-745 -64 -1437 -353 -1995 -835 -551 -475 -938 -1101
-1114 -1799 -73 -291 -101 -529 -101 -860 1 -404 50 -722 171 -1090 254 -772
784 -1445 1476 -1876 447 -278 924 -443 1483 -511 130 -16 600 -16 730 0 451
55 818 163 1195 351 729 364 1312 973 1639 1714 144 325 238 674 283 1052 16
139 16 595 0 730 -61 497 -198 932 -418 1327 -538 964 -1489 1620 -2569 1772
-249 35 -546 45 -780 25z m720 -2614 l0 -1750 -435 0 -435 0 -3 1740 c-1 957
0 1746 3 1753 3 10 96 12 437 10 l433 -3 0 -1750z m3 -3062 l-3 -438 -435 0
-435 0 -3 438 -2 437 440 0 440 0 -2 -437z"/>
</g>
</svg>
